<svg width="177" height="52" viewBox="0 0 177 52" fill="none" xmlns="http://www.w3.org/2000/svg">
<path d="M18.3356 34.7675H19.1518L21.3529 39.6162L23.0112 42.9751L21.897 44.0582L18.3356 40.6459L17.4934 35.9862L18.3356 34.7675Z" fill="white"/>
<path d="M17.1953 32.4657L19.2054 31.0882L20.7277 30.7322L23.0648 29.5642L25.6465 29.1616L28.6088 30.3803L31.8156 30.9485L34.2626 32.3575L34.5072 33.1421H17.1953V32.4657Z" fill="#D9B689"/>
<path d="M31.0791 32.348C30.9802 32.5876 30.7865 32.7738 30.5447 32.8642C30.0995 33.0299 29.3589 33.2476 28.775 33.1285C27.8805 32.9464 28.3518 32.7656 27.7665 32.7437C27.2568 32.7245 25.8787 33.0888 25.5228 33.1846C25.4692 33.1983 25.4129 33.1887 25.3689 33.1559C25.248 33.0669 25.2755 32.8793 25.417 32.8286L26.3101 32.5137C26.5615 32.4247 26.8198 32.3548 27.0823 32.3028L28.1553 32.0905L28.3669 32.0481C28.4164 32.0385 28.4672 32.0577 28.4988 32.0974L28.6486 32.2891C28.797 32.4794 29.047 32.5602 29.2792 32.4917L30.1668 32.2316C30.2616 32.2042 30.3537 32.1686 30.4416 32.1262L30.5941 32.0522C30.7164 31.9933 30.8593 31.9961 30.9788 32.0604C31.0791 32.1166 31.1245 32.2398 31.0791 32.348Z" fill="#F9F3E0"/>
<path d="M7.78448 38.0069C7.74633 37.4405 7.69502 36.9895 7.68713 36.5384C7.60161 31.3621 9.05008 26.684 12.3154 22.6156C12.6561 22.1908 12.7693 21.8591 12.5035 21.3399C12.2088 20.7617 12.0338 20.1205 11.8299 19.4991C11.7063 19.1228 11.4984 18.9772 11.0945 19.0677C10.5814 19.1818 10.0578 19.2552 9.52896 19.2041C9.25005 19.1778 9.00798 19.0703 8.9501 18.7635C8.88826 18.4318 9.06982 18.2325 9.36056 18.1027C9.84865 17.8838 10.3749 17.8248 10.8959 17.7776C11.6418 17.7107 11.4063 17.164 11.4392 16.7457C11.4734 16.2973 11.2077 16.199 10.8209 16.199C10.121 16.2003 9.41845 16.2108 8.73303 16.0141C8.39755 15.9184 8.07391 15.7781 8.08181 15.3874C8.09101 14.9442 8.48438 14.9049 8.80801 14.901C9.50791 14.8957 10.2104 14.9036 10.9077 14.9652C11.3813 15.0072 11.5523 14.8498 11.6471 14.3883C12.0694 12.3259 12.0602 10.2229 12.2772 8.14211C12.4917 6.09938 12.7601 4.06321 13.5902 2.16076C14.1809 0.805062 14.9887 0.555949 16.253 1.35573C17.9553 2.43217 19.3459 3.85343 20.5063 5.48709C20.8588 5.984 21.2417 6.13085 21.835 6.06398C24.8556 5.72702 27.8723 5.72047 30.8508 6.41929C31.3862 6.54516 31.5546 6.20296 31.7901 5.90665C33.0057 4.37656 34.3634 2.99464 35.9961 1.89985C36.1408 1.80283 36.2908 1.71105 36.4434 1.62583C37.7116 0.925685 38.7141 1.27444 39.2087 2.62884C39.6837 3.92947 39.8389 5.29828 39.9849 6.6671C40.256 9.20806 40.2336 11.7634 40.3836 14.3096C40.4191 14.9246 40.6204 15.1488 41.2426 15.133C42.257 15.1068 43.2502 15.2877 44.208 15.6273C44.433 15.7073 44.6513 15.8148 44.8605 15.9302C45.0881 16.0547 45.2368 16.2409 45.15 16.5202C45.0644 16.7929 44.8408 16.8794 44.5816 16.8663C44.2988 16.8519 44.0159 16.8126 43.7344 16.7759C42.8661 16.6618 41.9991 16.5399 41.1308 16.431C40.9387 16.4074 40.6348 16.3681 40.6006 16.5661C40.4888 17.2033 40.3099 17.8457 40.4125 18.4987C40.4441 18.6993 40.7151 18.7268 40.894 18.7976C41.4847 19.0323 42.0846 19.246 42.5938 19.6394C42.8635 19.8478 43.1003 20.1022 42.9082 20.4745C42.699 20.8797 42.3622 20.7394 42.0517 20.6175C41.5229 20.4077 40.994 20.1953 40.4704 19.9724C40.0941 19.8124 39.8705 19.8885 39.7205 20.2989C39.5403 20.7879 39.3456 21.2888 39.0574 21.7175C38.6417 22.3363 38.6996 22.7965 39.1587 23.3997C41.5531 26.5398 43.2989 30.009 44.3448 33.8244C45.838 39.2734 43.4805 45.0647 38.5983 47.9269C35.5172 49.7336 32.1703 50.6383 28.6248 50.9267C23.6282 51.3332 18.6829 51.046 13.8283 49.7677C11.5576 49.1698 9.42371 48.2061 7.38323 47.0327C4.27185 45.2443 2.53527 42.4057 1.20257 39.2236C-0.343252 35.5302 -0.301153 31.7935 0.773686 28.0096C0.839466 27.7788 0.877618 27.5376 0.969709 27.3173C1.71039 25.5289 1.6604 23.8323 0.606606 22.137C0.0856315 21.2992 0.0106423 20.2753 0.0737908 19.2788C0.171145 17.7094 1.17363 16.8781 2.7234 17.1666C4.57443 17.5101 5.85582 18.677 6.75964 20.249C7.70555 21.8945 7.87657 23.6737 7.40822 25.504C6.93198 27.3632 6.3939 29.2106 6.26103 31.1379C6.11894 33.2108 6.3268 35.2339 7.19378 37.152C7.31481 37.4195 7.38454 37.7289 7.78448 38.0069ZM24.3281 49.4491C28.3867 49.3756 31.848 48.9469 35.1738 47.6961C41.5584 45.2941 44.4238 39.377 42.3109 32.9564C41.1742 29.5003 39.485 26.3458 37.1656 23.5295C36.5328 22.7611 36.5328 22.5946 37.1301 21.7555C37.5366 21.1839 37.8826 20.5807 38.1747 19.9435C38.3404 19.5804 38.2352 19.4138 37.855 19.3719C37.1367 19.2932 36.4184 19.2119 35.7001 19.1293C35.3146 19.0861 35.0015 18.9235 34.9975 18.4974C34.9923 18.0372 35.3685 17.9493 35.7277 17.9087C36.4092 17.8326 37.0827 17.9336 37.755 18.0385C38.7575 18.1945 38.7575 18.1919 38.8404 17.1679C38.8456 17.1023 38.8496 17.0368 38.8575 16.9725C38.9088 16.5962 38.7364 16.4468 38.3694 16.4861C37.9339 16.532 37.4998 16.5897 37.063 16.6159C36.7802 16.633 36.5276 16.5281 36.4684 16.2173C36.4131 15.9276 36.6381 15.786 36.8551 15.6732C37.2498 15.4687 37.6892 15.3992 38.1221 15.3507C38.6351 15.2943 38.8509 15.095 38.7601 14.547C38.593 13.5335 38.5957 12.5055 38.5733 11.4789C38.5233 9.07694 38.3273 6.68545 37.8918 4.32019C37.6063 2.76913 37.4077 2.69439 36.1737 3.71576C34.8226 4.83415 33.5885 6.07578 32.5703 7.50753C32.1743 8.06476 31.7612 8.36369 31.035 8.12245C30.393 7.90873 29.7075 7.85104 29.03 7.78811C26.4067 7.54162 23.7834 7.41837 21.1614 7.77631C20.455 7.87202 20.005 7.69633 19.609 7.04208C18.6421 5.44251 17.4067 4.05534 15.8556 2.97891C15.1992 2.52263 14.9637 2.6013 14.7413 3.367C14.1625 5.36646 13.802 7.40657 13.7336 9.48601C13.6757 11.2324 13.6244 12.9762 13.2705 14.6925C13.1705 15.1802 13.3744 15.3533 13.8165 15.4556C14.4769 15.609 15.1281 15.8069 15.7741 16.0102C16.0701 16.1033 16.3937 16.2514 16.2608 16.6513C16.1451 17.0001 15.807 16.9607 15.5307 16.907C14.9282 16.7916 14.3335 16.6408 13.7349 16.5084C13.4336 16.4415 13.1047 16.3222 13.0534 16.8165C13.0061 17.2662 13.1468 17.5193 13.6599 17.5114C14.294 17.5022 14.9295 17.5298 15.5636 17.5665C15.8346 17.5822 16.103 17.6766 16.0872 18.0267C16.074 18.344 15.8175 18.3925 15.5715 18.4187C15.0058 18.4803 14.4388 18.5524 13.8717 18.5826C13.3113 18.6114 13.2126 18.8474 13.4021 19.3444C13.6902 20.1009 14.0072 20.8417 14.398 21.5497C14.6795 22.061 14.6098 22.5042 14.2046 22.9159C12.9153 24.2257 11.9654 25.7584 11.2498 27.4405C9.28952 32.0505 8.28046 36.7154 10.4012 41.5692C10.5564 41.9232 10.6288 42.2877 10.2223 42.5578C9.75524 42.8685 9.40135 42.5735 9.12244 42.2864C6.86357 39.9539 5.24276 37.2858 4.86255 33.9975C4.57707 31.5313 4.9428 29.1253 5.59797 26.7509C5.88345 25.7164 6.05711 24.661 6.07026 23.5872C6.09395 21.5824 4.56786 19.3758 2.82338 18.854C2.0064 18.6101 1.66566 18.871 1.6775 19.718C1.68934 20.5322 2.01166 21.2455 2.39844 21.9351C3.13386 23.2489 3.36146 24.6374 3.02072 26.1045C2.78391 27.1246 2.53 28.1407 2.26688 29.1542C0.914455 34.3711 2.22347 39.002 5.47956 43.1491C7.53715 45.7687 10.488 47.0943 13.5507 48.0606C17.2133 49.2183 21.0365 49.411 24.3281 49.4491Z" fill="#583A22"/>
<path d="M60.2227 18.1224C62.9039 18.1604 65.318 18.8789 67.2453 20.8469C68.0728 21.6926 68.6622 22.6759 68.9701 23.814C69.3871 25.3546 68.7648 26.5831 67.2743 27.1914C66.9519 27.3226 66.6112 27.4235 66.2705 27.4891C64.9141 27.7513 64.2195 27.4471 63.5446 26.2474C63.0381 25.3467 62.3434 24.7029 61.3304 24.4381C59.6201 23.991 57.9243 24.5154 57.0192 25.761C55.9365 27.2518 55.8799 29.1044 56.8706 30.6712C57.7586 32.0754 59.4215 32.7729 61.1436 32.4635C62.3224 32.2511 63.2788 31.648 63.955 30.6856C64.5299 29.8661 65.2772 29.6065 66.2218 29.6918C66.9519 29.7586 67.6374 29.9566 68.286 30.2962C69.5095 30.936 69.862 31.7319 69.4516 33.0522C68.9516 34.6596 67.9044 35.8907 66.5573 36.8348C62.8289 39.4452 57.4665 39.3875 53.8605 36.6368C50.4426 34.029 49.4901 30.426 50.1729 26.3641C50.9978 21.4592 55.2248 18.0647 60.2227 18.1224Z" fill="#583A22"/>
<path d="M86.6266 31.6663C86.6266 33.3459 86.6359 35.0241 86.624 36.7036C86.6148 37.8705 86.2714 38.2613 85.1124 38.4527C84.2204 38.5995 83.3206 38.5917 82.4286 38.4645C81.8326 38.3793 81.338 38.1105 81.1617 37.4811C81.0262 36.9986 80.7973 37.0799 80.517 37.3435C77.8069 39.8975 73.8601 38.6703 72.1012 35.9012C70.0752 32.71 70.4225 28.5445 72.9576 25.9996C74.7718 24.1772 77.6622 23.6698 79.8711 24.7842C80.4657 25.0845 81.3327 25.0412 81.8576 24.6833C82.0813 24.5299 82.3325 24.4525 82.597 24.4355C83.3192 24.3883 84.0428 24.3725 84.7625 24.4617C85.8268 24.5941 86.2951 25.0714 86.3793 26.1766C86.4582 27.2203 86.4911 28.2666 86.5201 29.3128C86.5411 30.0969 86.524 30.8823 86.524 31.6676C86.5569 31.6663 86.5924 31.6663 86.6266 31.6663ZM78.6015 29.3378C77.2202 29.3456 76.3782 30.211 76.3887 31.6112C76.3979 32.9053 77.3294 33.8283 78.6278 33.8297C79.9605 33.831 80.8354 32.9171 80.8275 31.5299C80.817 30.186 79.95 29.3299 78.6015 29.3378Z" fill="#583A22"/>
<path d="M177 31.4736C176.997 35.6482 173.712 38.8132 169.387 38.808C165.233 38.8027 161.96 35.5879 161.9 31.6047C161.831 27.101 165.341 24.1313 169.335 24.1706C173.822 24.2139 177.003 27.2058 177 31.4736ZM169.41 33.6933C170.74 33.688 171.632 32.8266 171.628 31.5496C171.626 30.3014 170.719 29.3915 169.48 29.3915C168.097 29.3915 167.201 30.2398 167.199 31.5509C167.198 32.8358 168.087 33.6972 169.41 33.6933Z" fill="#583A22"/>
<path d="M120.661 32.8581C119.478 32.8581 118.296 32.8542 117.114 32.862C116.906 32.8634 116.647 32.8004 116.537 33.0574C116.431 33.3013 116.633 33.4639 116.76 33.633C117.531 34.6583 118.957 34.9546 120.335 34.3292C121.119 33.9726 121.881 33.633 122.78 33.7287C123.667 33.8231 124.447 34.0893 124.746 34.9952C125.042 35.8947 124.795 36.7154 124.105 37.388C123.601 37.8784 122.959 38.1026 122.309 38.3006C119.953 39.0152 117.585 39.0833 115.297 38.1157C111.46 36.4925 110.43 32.571 111.356 29.2171C112.173 26.2618 114.263 24.7016 117.24 24.2598C118.576 24.0618 119.906 24.1654 121.21 24.5377C124.008 25.3362 126.08 28.3701 125.794 31.2572C125.68 32.4202 125.193 32.8856 124.012 32.9066C122.895 32.9263 121.778 32.9106 120.661 32.9106C120.661 32.8922 120.661 32.8752 120.661 32.8581ZM118.43 30.068C118.43 30.0733 118.43 30.0785 118.43 30.0838C118.955 30.0838 119.481 30.0772 120.006 30.0851C120.46 30.0916 120.581 29.8884 120.462 29.4662C120.215 28.5786 119.555 28.1092 118.535 28.1263C117.58 28.142 116.655 28.7989 116.467 29.5711C116.381 29.9225 116.513 30.0654 116.852 30.0667C117.38 30.0694 117.905 30.068 118.43 30.068Z" fill="#583A22"/>
<path d="M101.444 33.5438C101.444 32.3664 101.432 31.189 101.449 30.013C101.456 29.5423 101.281 29.3653 100.797 29.3495C99.5523 29.3102 99.1261 28.8775 99.0643 27.6346C99.0314 26.962 98.9958 26.2841 99.1656 25.6181C99.3774 24.7816 99.726 24.4866 100.581 24.4446C101.489 24.3987 101.505 24.3987 101.511 23.4757C101.526 21.1078 102.337 19.1765 104.495 17.9598C105.899 17.1679 107.42 17.0394 108.955 17.3082C110.894 17.6477 111.835 19.6092 110.991 21.391C110.673 22.0636 110.106 22.394 109.39 22.4924C109.001 22.5461 108.604 22.5579 108.216 22.6195C107.509 22.7336 107.08 23.3288 107.141 24.0342C107.168 24.362 107.363 24.4223 107.629 24.4223C108.044 24.4236 108.462 24.4066 108.876 24.4315C109.643 24.4774 110.096 24.8484 110.245 25.601C110.436 26.5542 110.374 27.5126 110.145 28.454C110.013 29.0008 109.618 29.2879 109.067 29.3666C108.959 29.3823 108.848 29.3797 108.739 29.3836C107.104 29.4374 107.108 29.4361 107.106 31.0409C107.105 32.9368 107.104 34.834 107.084 36.7298C107.072 37.9623 106.589 38.4671 105.345 38.5418C104.471 38.5943 103.593 38.6257 102.724 38.4736C101.843 38.3189 101.474 37.8954 101.463 37.0052C101.447 35.8501 101.459 34.695 101.459 33.5399C101.455 33.5438 101.449 33.5438 101.444 33.5438Z" fill="#583A22"/>
<path d="M134.735 24.1536C136.486 24.2335 138.193 24.4708 139.571 25.6967C140.42 26.4506 140.949 27.3881 141.025 28.5366C141.087 29.4492 140.748 29.9684 139.899 30.3224C139.114 30.6502 138.286 30.7262 137.448 30.6738C137.026 30.6475 136.66 30.4469 136.349 30.1428C136.018 29.8176 135.636 29.5646 135.168 29.4689C134.196 29.2696 133.268 29.6432 132.836 30.4102C132.403 31.1772 132.524 32.3507 133.104 32.9918C133.654 33.6015 134.785 33.8205 135.604 33.4691C135.763 33.4009 135.938 33.3288 136.056 33.2095C137.426 31.8381 138.902 32.5382 140.332 33.0272C141.02 33.2619 141.225 33.8952 141.121 34.5888C140.903 36.0415 140.016 37.0485 138.795 37.7473C136.122 39.2774 133.38 39.1659 130.677 37.8496C127.947 36.5201 126.571 33.7641 126.935 30.5532C127.268 27.6123 129.458 25.1775 132.455 24.4145C133.201 24.223 133.962 24.1378 134.735 24.1536Z" fill="#583A22"/>
<path d="M90.0446 32.0583C90.0446 31.2953 90.0262 30.5309 90.0525 29.7691C90.0656 29.3614 89.9433 29.1214 89.5104 29.1594C88.3172 29.263 87.8699 28.4344 87.8383 27.375C87.8199 26.7627 87.8225 26.153 87.9422 25.5499C88.112 24.7029 88.458 24.3358 89.3026 24.3148C89.963 24.2991 90.1209 24.0172 90.0932 23.4311C90.0617 22.7572 90.0669 22.0781 90.1117 21.4055C90.1735 20.4693 90.6826 19.9632 91.6154 19.9186C92.314 19.8859 93.0178 19.8872 93.7151 19.9357C94.7294 20.0065 95.303 20.6044 95.3701 21.6218C95.4109 22.2524 95.4253 22.8857 95.4122 23.5177C95.4004 24.067 95.5964 24.3384 96.1805 24.2807C96.4173 24.2571 96.662 24.2807 96.9014 24.3004C97.7526 24.3725 98.1736 24.7488 98.2802 25.5932C98.3736 26.33 98.3999 27.0761 98.2762 27.8103C98.1157 28.7648 97.7342 29.069 96.7738 29.1083C95.4753 29.1608 95.5595 28.9523 95.5701 30.3853C95.5753 31.0829 95.5845 31.7817 95.6214 32.4779C95.6661 33.3249 95.9503 33.5937 96.7909 33.6435C98.0118 33.7156 98.4052 34.0893 98.5301 35.2981C98.5722 35.7111 98.5683 36.1254 98.5012 36.5371C98.3539 37.4366 97.8855 38.0738 96.9751 38.3058C95.4819 38.6874 93.9716 38.7595 92.5166 38.2009C90.8668 37.5677 90.2327 36.1858 90.0998 34.5429C90.034 33.7195 90.088 32.887 90.088 32.0596C90.0722 32.0583 90.0577 32.0583 90.0446 32.0583Z" fill="#583A22"/>
<path d="M155.195 19.9016C155.461 19.9147 155.835 19.9134 156.204 19.9567C157.081 20.0602 157.737 20.7184 157.805 21.5995C157.858 22.2721 157.866 22.9499 157.855 23.6252C157.848 24.1155 158.009 24.3712 158.538 24.3214C159.997 24.1837 160.677 24.7055 160.72 26.5214C160.73 26.9777 160.731 27.4419 160.655 27.889C160.506 28.7595 160.109 29.0952 159.217 29.0952C157.858 29.0952 157.949 29.0178 157.954 30.388C157.957 31.0855 157.94 31.7856 157.988 32.4805C158.042 33.258 158.38 33.5478 159.163 33.5923C160.276 33.6566 160.664 34.0145 160.817 35.1224C160.843 35.3165 160.86 35.5131 160.869 35.7085C160.952 37.4575 160.241 38.3176 158.503 38.5392C157.519 38.6651 156.541 38.6441 155.573 38.3688C154.014 37.9256 153.071 36.9239 152.715 35.3545C152.452 34.1941 152.477 33.0154 152.467 31.8394C152.46 31.1641 152.447 30.4876 152.467 29.8124C152.479 29.4138 152.352 29.225 151.925 29.1817C150.659 29.0572 150.349 28.7268 150.289 27.4668C150.255 26.7483 150.259 26.0272 150.443 25.3218C150.62 24.6465 151.041 24.2466 151.76 24.2925C152.335 24.3293 152.477 24.0723 152.448 23.557C152.417 22.9919 152.43 22.4229 152.452 21.8565C152.506 20.4483 153.015 19.9527 154.432 19.9042C154.651 19.8963 154.87 19.9016 155.195 19.9016Z" fill="#583A22"/>
<path d="M148.892 32.1016C148.892 33.1177 148.909 34.733 148.887 36.347C148.867 37.8168 148.36 38.3452 146.903 38.4973C146.269 38.5641 145.634 38.5668 145.001 38.4986C143.741 38.3648 143.238 37.8574 143.212 36.6027C143.167 34.5534 143.155 32.5028 143.147 30.4522C143.142 29.1004 143.155 27.7474 143.181 26.3956C143.206 25.0832 143.675 24.5915 144.994 24.4761C145.738 24.4119 146.484 24.4302 147.226 24.5141C148.312 24.6374 148.771 25.1002 148.848 26.2042C148.97 27.9703 148.863 29.7376 148.892 32.1016Z" fill="#583A22"/>
<path d="M146.073 17.4196C146.619 17.4196 147.169 17.3764 147.71 17.4288C148.781 17.5311 149.396 18.2338 149.42 19.2998C149.462 21.2298 148.565 22.2616 146.632 22.5002C146.459 22.5212 146.284 22.5291 146.11 22.5474C143.256 22.8359 142.675 20.8679 142.929 18.715C143.018 17.9624 143.592 17.4891 144.369 17.4209C144.932 17.3724 145.505 17.4118 146.072 17.4118C146.073 17.4157 146.073 17.417 146.073 17.4196Z" fill="#583A22"/>
<path d="M141.116 12.3089C141.124 11.8749 141.1 11.4383 141.3 11.0305C141.616 10.3881 142.057 10.2766 142.6 10.7303C142.816 10.9099 143.029 11.1131 143.179 11.3465C143.91 12.4898 144.538 13.6829 144.518 15.0871C144.507 15.8371 144.31 15.959 143.58 15.8148C141.999 15.5041 141.112 14.2415 141.116 12.3089ZM143.767 15.0163C143.921 14.7043 143.859 14.5351 143.762 14.3922C143.201 13.5649 142.562 12.7809 142.371 11.7582C142.353 11.6625 142.28 11.5274 142.149 11.5668C141.942 11.6284 142.02 11.8172 142.029 11.9549C142.12 13.2253 143.009 14.0317 143.767 15.0163Z" fill="#583A22"/>
<path d="M149.904 11.7765C149.899 13.0719 148.492 15.1225 147.322 15.5434C146.412 15.8699 146.093 15.6522 146.119 14.6964C146.166 12.9697 147.014 11.7228 148.527 10.9453C149.311 10.5415 149.908 10.9427 149.904 11.7765ZM146.928 14.8262C147.107 14.7672 147.243 14.6427 147.301 14.4801C147.631 13.5544 148.167 12.7809 148.945 12.1738C149.048 12.0938 149.137 11.968 149.038 11.8369C148.928 11.6913 148.791 11.7962 148.691 11.8605C147.707 12.4964 147.162 13.4456 146.807 14.5234C146.765 14.6453 146.736 14.7856 146.928 14.8262Z" fill="#583A22"/>
<path d="M146.797 9.36409C146.794 10.59 146.319 11.6441 145.599 12.6065C145.457 12.7966 145.293 13.0195 145.013 12.9225C144.769 12.8373 144.731 12.5724 144.757 12.3679C144.904 11.2298 144.663 10.1232 144.53 9.00484C144.461 8.42663 144.596 7.87465 145.014 7.4328C145.421 7.00275 145.859 7.01193 146.247 7.46296C146.719 8.01101 146.802 8.67575 146.797 9.36409ZM145.322 11.8159C146.03 11.0777 146.048 10.0314 145.414 8.32961C145.088 9.47946 145.682 10.6647 145.322 11.8159Z" fill="#583A22"/>
<path d="M25.4634 44.1338C24.1254 44.1902 22.7967 44.084 21.4666 43.9305C20.497 43.8191 19.7366 43.3707 19.0893 42.6771C16.6765 40.0981 15.3425 37.0275 14.9031 33.5543C14.8347 33.0141 14.8163 32.4687 14.7913 31.9246C14.7768 31.6139 14.8913 31.3188 15.2333 31.3005C15.6675 31.2769 15.8872 30.9884 16.1424 30.7275C17.1067 29.7389 18.2197 29.0585 19.6564 29.0637C19.9839 29.065 20.2392 28.9142 20.4905 28.7294C22.5507 27.2124 24.674 27.1219 26.8527 28.4658C27.1618 28.656 27.4907 28.7399 27.8499 28.7464C30.0759 28.791 31.9743 29.617 33.5845 31.1327C33.6911 31.2323 33.8385 31.3411 33.974 31.3503C34.5226 31.387 34.7883 31.6348 34.8291 32.2025C34.8567 32.5972 35.233 32.5329 35.5079 32.5264C36.3683 32.5093 37.1564 32.7113 37.8497 33.2357C39.4481 34.4419 39.6547 36.6066 38.3299 38.1432C37.1801 39.4767 35.6882 40.0536 33.9687 40.0601C33.3543 40.0627 33.0307 40.283 32.7465 40.8114C31.5322 43.0678 29.5496 44.0643 27.0382 44.1325C26.5146 44.1456 25.9883 44.1338 25.4634 44.1338ZM32.3676 31.2625C31.3678 30.2778 30.3561 29.8268 29.1563 29.7075C28.0512 29.5973 26.9947 29.3482 25.9607 28.8461C24.3636 28.0725 22.7046 28.1892 21.239 29.2407C20.6181 29.6865 20.0234 29.9553 19.263 29.9369C18.4329 29.9173 17.7461 30.304 17.1278 30.8193C17.0318 30.8993 16.9081 30.9911 16.9818 31.1445C17.037 31.2612 17.1646 31.2467 17.2699 31.252C17.4672 31.2612 17.6632 31.2638 17.8606 31.2638C20.9904 31.2638 24.1215 31.2625 27.2513 31.2612C28.8879 31.2625 30.5271 31.2625 32.3676 31.2625ZM17.4172 34.7946C17.5251 36.4493 18.075 37.978 18.8867 39.419C19.2854 40.127 19.8287 40.734 20.4589 41.248C20.7667 41.4997 21.1838 41.7213 21.5127 41.3424C21.8139 40.9963 21.5679 40.6436 21.2916 40.3643C20.9522 40.0221 20.6391 39.6628 20.3615 39.2682C19.388 37.8889 19.0196 36.3024 18.7381 34.6819C18.6565 34.2125 18.6131 33.6133 17.954 33.6776C17.3041 33.7431 17.4856 34.3528 17.4172 34.7946ZM35.7158 34.1273C35.3409 34.1391 34.9015 34.1286 34.7515 34.5285C34.3489 35.6075 34.0766 36.7259 33.9292 37.8692C33.8885 38.1865 34.0818 38.332 34.4042 38.3491C35.5724 38.4107 36.9906 37.4051 37.3011 36.2841C37.6142 35.1539 36.867 34.1365 35.7158 34.1273Z" fill="#583A22"/>
<path d="M25.641 15.5303C25.8042 15.5539 26.0252 15.5657 26.2357 15.6195C26.9303 15.7978 27.1224 16.3078 26.6448 16.8296C26.2962 17.2099 26.087 17.5757 26.5817 17.9139C27.0527 18.2365 27.4421 18.0398 27.6841 17.5245C27.8118 17.2531 28.0236 17.0407 28.3604 17.1928C28.6827 17.3383 28.6708 17.6399 28.6195 17.927C28.4419 18.9182 27.3513 19.4466 26.2922 18.9995C25.8699 18.8212 25.5384 18.8265 25.12 18.9943C24.1741 19.3745 23.2216 18.9379 23.0006 18.0778C22.927 17.7946 22.8809 17.4865 23.2045 17.3331C23.5255 17.181 23.7334 17.3737 23.8952 17.6478C23.9702 17.7736 24.0755 17.9061 24.2004 17.9729C24.4478 18.104 24.7201 18.1001 24.9319 17.8956C25.1556 17.6805 25.1227 17.4262 24.9701 17.1797C24.9359 17.1246 24.8911 17.0748 24.8425 17.0302C24.5307 16.7431 24.3412 16.3983 24.5149 15.984C24.7109 15.5041 25.1779 15.5696 25.641 15.5303Z" fill="#583A22"/>
<path d="M32.0677 13.8402C32.6874 13.8337 33.2268 14.0317 33.6727 14.4643C33.9727 14.7554 34.1108 15.112 34.0714 15.5277C34.0424 15.8305 33.9043 16.0692 33.5885 16.1596C33.2846 16.2462 33.0492 16.1622 32.8373 15.9131C32.2558 15.2287 31.8388 15.2209 31.2455 15.8804C30.9521 16.2068 30.6193 16.414 30.2193 16.1531C29.8273 15.8974 29.8602 15.4857 30.0128 15.0937C30.3061 14.3372 31.1363 13.835 32.0677 13.8402Z" fill="#583A22"/>
<path d="M18.7749 15.0753C18.7789 14.3031 19.3354 13.7603 20.1089 13.7721C20.893 13.7839 21.4443 14.3346 21.4311 15.0924C21.4153 15.9525 20.9417 16.4796 20.1892 16.4704C19.359 16.4612 18.771 15.8804 18.7749 15.0753Z" fill="#583A22"/>
<path d="M22.8711 30.9157C23.014 30.7007 23.2407 30.5556 23.4962 30.5131C23.9648 30.4364 24.7342 30.3666 25.2838 30.5966C26.126 30.9485 25.6273 31.0334 26.1988 31.169C26.6948 31.2868 28.1182 31.1964 28.4865 31.1704C28.5414 31.1663 28.595 31.1882 28.6321 31.2292C28.7338 31.3402 28.6692 31.5195 28.5208 31.5401L27.5838 31.6756C27.32 31.714 27.0521 31.7331 26.7855 31.7331H25.6918H25.4761C25.4253 31.7331 25.3786 31.7044 25.3566 31.6592L25.248 31.4429C25.1395 31.2279 24.91 31.1005 24.6696 31.1224L23.7477 31.206C23.6501 31.2142 23.5526 31.232 23.4578 31.2566L23.2943 31.2991C23.1624 31.3333 23.0222 31.3032 22.9178 31.2169C22.8257 31.1443 22.8051 31.0143 22.8711 30.9157Z" fill="#F9F3E0"/>
</svg>
