<svg width="24" height="24" viewBox="0 0 24 24" fill="none" xmlns="http://www.w3.org/2000/svg">
<path fill-rule="evenodd" clip-rule="evenodd" d="M0 2.57143C0 1.88944 0.27093 1.23539 0.75319 0.753154C1.23545 0.270918 1.88953 0 2.57155 0L14.5721 0C15.2541 0 15.9082 0.270918 16.3905 0.753154C16.8727 1.23539 17.1437 1.88944 17.1437 2.57143V5.89543C16.4481 6.45257 15.9967 7.25865 15.8853 8.14286H9.85761C9.35106 8.14286 8.84947 8.24263 8.38147 8.43646C7.91348 8.6303 7.48825 8.91442 7.13007 9.27259C6.77188 9.63076 6.48775 10.056 6.2939 10.5239C6.10006 10.9919 6.00028 11.4935 6.00028 12C6.00028 12.5065 6.10006 13.0081 6.2939 13.4761C6.48775 13.944 6.77188 14.3692 7.13007 14.7274C7.48825 15.0856 7.91348 15.3697 8.38147 15.5635C8.84947 15.7574 9.35106 15.8571 9.85761 15.8571H15.8853C15.9967 16.7413 16.4481 17.5474 17.1437 18.1046V21.4286C17.1437 22.1106 16.8727 22.7646 16.3905 23.2468C15.9082 23.7291 15.2541 24 14.5721 24H2.57155C1.88953 24 1.23545 23.7291 0.75319 23.2468C0.27093 22.7646 0 22.1106 0 21.4286L0 2.57143ZM18.7946 7.38343C18.5596 7.48075 18.3588 7.64556 18.2175 7.85703C18.0762 8.06849 18.0008 8.31711 18.0008 8.57143V10.2857H9.85761C9.40293 10.2857 8.96687 10.4663 8.64537 10.7878C8.32386 11.1093 8.14324 11.5453 8.14324 12C8.14324 12.4547 8.32386 12.8907 8.64537 13.2122C8.96687 13.5337 9.40293 13.7143 9.85761 13.7143H18.0008V15.4286C18.0011 15.6827 18.0766 15.9311 18.2179 16.1423C18.3592 16.3535 18.5599 16.5181 18.7947 16.6154C19.0295 16.7126 19.2879 16.738 19.5372 16.6885C19.7864 16.639 20.0154 16.5167 20.1952 16.3371L23.624 12.9086C23.8648 12.6675 24 12.3407 24 12C24 11.6593 23.8648 11.3325 23.624 11.0914L20.1952 7.66286C20.0155 7.48304 19.7866 7.36053 19.5373 7.31079C19.288 7.26106 19.0295 7.28633 18.7946 7.38343Z" fill="#4B2E1E"/>
</svg>
