<svg width="15" height="24" viewBox="0 0 15 24" fill="none" xmlns="http://www.w3.org/2000/svg">
<path d="M7.5 0.5C8.55954 0.5 9.59529 0.837231 10.4763 1.46905C11.3572 2.10087 12.0439 2.99889 12.4494 4.04957C12.8548 5.10025 12.9609 6.25638 12.7542 7.37177C12.5475 8.48716 12.0373 9.51171 11.2881 10.3159C10.5389 11.12 9.58431 11.6677 8.54513 11.8895C7.50594 12.1114 6.4288 11.9975 5.44991 11.5623C4.47102 11.1271 3.63435 10.3901 3.0457 9.44453C2.45705 8.49895 2.14286 7.38724 2.14286 6.25L2.14821 6.00045C2.20813 4.52011 2.79815 3.12174 3.79524 2.09696C4.79233 1.07217 6.1195 0.500086 7.5 0.5ZM9.64286 14.3C11.0637 14.3 12.4263 14.9058 13.4309 15.9841C14.4356 17.0625 15 18.525 15 20.05V21.2C15 21.81 14.7742 22.395 14.3724 22.8263C13.9705 23.2577 13.4255 23.5 12.8571 23.5H2.14286C1.57454 23.5 1.02949 23.2577 0.627628 22.8263C0.225765 22.395 0 21.81 0 21.2V20.05C0 18.525 0.564412 17.0625 1.56907 15.9841C2.57373 14.9058 3.93634 14.3 5.35714 14.3H9.64286Z" fill="#4B2E1E"/>
</svg>
