<?xml version="1.0" encoding="utf-8"?>
<!-- Generator: Adobe Illustrator 25.4.1, SVG Export Plug-In . SVG Version: 6.00 Build 0)  -->
<svg version="1.1" id="Capa_1" xmlns="http://www.w3.org/2000/svg" xmlns:xlink="http://www.w3.org/1999/xlink" x="0px" y="0px"
	 viewBox="0 0 526.93 544.34" style="enable-background:new 0 0 526.93 544.34;" xml:space="preserve">
<style type="text/css">
	.st0{fill:#4D2B08;}
	.st1{fill:#492A08;}
</style>
<g>
	<path class="st0" d="M255.84,382.32c-0.3-5.68,0.3-11.13,1.88-16.44c1.18-3.96,4.79-5.85,8.18-4.45c1.98,0.82,2.97,2.51,3.72,4.4
		c1.92,4.87,2.45,9.98,2.5,15.34c1.11-0.33,1.35-1.31,1.79-2.01c9.51-15.22,20.28-29.42,33.58-41.59
		c10.27-9.4,21.44-17.48,33.86-23.77c1.63-0.83,2.75-1.85,3.39-3.6c0.49-1.35,1.24-2.66,2.08-3.83c2.07-2.88,5.71-3.51,8.31-1.13
		c1.53,1.4,2.45,0.97,3.93,0.22c22.28-11.35,43.66-24.33,65.75-36.03c5.31-2.81,10.8-5.29,16.2-7.93c0.35-0.17,0.67-0.39,1.65-0.97
		c-4.79-0.29-8.87-0.6-12.95-0.77c-16.49-0.67-32.99-1.23-49.45,0.34c-30.63,2.92-56.86,14.65-76.75,38.8
		c-7.04,8.55-12.53,18.05-16.47,28.42c-0.9,2.38-2.14,4.31-4.8,4.91c-2.55,0.57-4.83,0.05-6.58-1.93c-1.83-2.08-1.89-4.53-0.97-7.02
		c4.35-11.69,10.27-22.52,18.14-32.19c21.04-25.85,48.51-39.92,81.37-43.73c21.5-2.49,43.06-2.02,64.61-0.59
		c6.52,0.43,13.02,0.98,19.53,1.5c5.44,0.44,8.02,3.71,6.98,9.12c-1.71,8.94-3.53,17.86-6.15,26.59
		c-7.12,23.75-17.19,46.02-32.88,65.45c-20.05,24.83-46.09,39.27-77.57,43.6c-19.55,2.69-38.54-0.24-56.8-7.75
		c-4.8-1.97-4.59-1.8-7.77,2.19c-2.36,2.97-2.58,6.19-2.7,9.64c-0.57,17.53-0.25,35.07-0.33,52.6c-0.05,10.14,0.04,20.29-0.03,30.43
		c-0.04,5.21-4.39,8.18-8.93,6.19c-2.81-1.23-3.67-3.57-3.67-6.5c0.03-18.22-0.03-36.45,0.01-54.67
		c0.02-10.74,0.19-21.49,0.27-32.23c0.02-2.31,0.41-4.57,0.99-7.46c-4.19,3.01-8.01,3.31-11.84,0.28c0.65,5.96,0.68,11.71,0.7,17.44
		c0.07,25.53,0.04,51.06,0.03,76.59c0,5.3-4.4,8.55-8.93,6.61c-2.92-1.25-3.82-3.7-3.81-6.69c0.03-12.12,0.08-24.24,0.02-36.36
		c-0.08-16.67,0.29-33.35-0.38-50.02c-0.15-3.83-3.02-6.23-4.64-9.27c-0.41-0.77-1.41,0-2.1,0.26c-8.85,3.34-17.78,6.36-27.15,7.96
		c-20.39,3.48-40.2,1.36-59.49-6.07c-30.56-11.78-52.21-33.37-67.73-61.62c-10.46-19.04-17.6-39.31-21.88-60.6
		c-0.52-2.61-0.86-5.26-1.15-7.9c-0.46-4.16,2.3-7.31,6.75-7.81c11.79-1.31,23.64-1.92,35.49-2.36c19.09-0.71,38.28-1.04,57.08,2.48
		c43.44,8.13,74.29,32.32,90.93,73.74c1.86,4.63,0.69,8.16-2.83,9.67c-3.53,1.51-6.96,0.06-8.37-3.6
		c-5.19-13.5-12.91-25.35-22.95-35.75c-11.69-12.11-25.6-20.63-41.38-26.3c-12.94-4.65-26.36-6.21-39.99-6.71
		c-15.9-0.59-31.77-0.27-47.59,0.76c-0.19,0.52,0,0.75,0.35,0.9c18.8,8.39,35.7,20.18,53.69,30c9.35,5.1,18.8,10.01,28.18,15.05
		c1.27,0.68,2.07,0.78,3.25-0.45c3.37-3.51,8.49-2.76,9.96,1.85c1.62,5.07,5.06,7.58,9.34,10.11
		c22.35,13.21,40.51,30.86,54.63,52.66C250.56,374.34,253.37,378.21,255.84,382.32z M77.41,266.37c-0.39,1.18-0.01,1.99,0.18,2.81
		c4.16,18.31,10.85,35.67,20.32,51.87c18.54,31.69,44.73,52.87,81.9,58.52c17.94,2.73,35.23-0.14,52.05-6.6
		c1.26-0.48,1.35-1.04,0.56-2.04c-1.71-2.15-3.35-4.36-5.06-6.51c-11.19-14.1-24.78-25.42-40.02-34.88
		c-1.44-0.89-2.18-0.73-3.39,0.53c-5.98,6.24-13.55,9.94-21.62,12.54c-4.1,1.32-7.74-2.13-7.42-6.46c0.23-3.09,2.06-5,4.79-6.15
		c4.61-1.95,9.01-4.24,13.03-7.24c1.12-0.83,1.12-1.3-0.14-1.92c-2.16-1.05-4.26-2.24-6.41-3.3
		c-26.67-13.15-52.69-27.45-77.42-44.04C85.07,271.02,81.24,268.77,77.41,266.37z M450.05,266.69c-1.75,1.15-2.89,1.88-4.02,2.63
		c-9.17,6.06-18.45,11.94-27.78,17.77c-18.76,11.73-38.77,21.04-58.67,30.56c-5.08,2.43-5.08,2.7-0.44,5.93
		c4.19,2.92,8.92,4.78,13.49,6.95c3.31,1.57,4.74,5.17,3.55,8.43c-1.13,3.11-4.55,4.79-8.1,3.56c-8.6-2.97-16.73-6.83-22.83-13.91
		c-0.94-1.09-1.56-1.12-2.74-0.46c-18.81,10.62-33.83,25.42-46.9,42.39c-0.8,1.04-0.98,1.58,0.52,2.17
		c15.25,6.05,31.03,9.18,47.4,7.44c31.52-3.36,56.73-18.18,75.69-43.44c12.94-17.24,21.47-36.7,27.46-57.32
		C447.85,275.41,448.82,271.36,450.05,266.69z"/>
	<path class="st0" d="M216.65,172.08c-0.81-4.78-1.79-9.21-2.27-13.72c-2.77-26.24,3.87-49.87,19.39-71.14
		c7.48-10.25,15.79-19.71,25.54-27.87c2.89-2.42,5.86-2.7,8.67-0.37c20.87,17.34,36.71,38.11,43.03,65
		c3.38,14.38,3.3,28.97,0.51,43.51c-0.19,1.01-0.38,2.02-0.56,3.04c-0.01,0.06,0.08,0.15,0.16,0.3c0.18,0.01,0.45,0.12,0.63,0.03
		c11.51-5.52,23.86-6.8,36.38-7.08c5.33-0.12,10.66-0.08,15.99-0.02c4.34,0.05,7.32,2.68,7.02,6.85
		c-1.38,19.1-5.84,37.31-18.54,52.27c-12.37,14.57-28.8,19.5-47.47,17.99c-11.2-0.9-21.39-4.82-30.99-10.45
		c-2.64-1.55-4.03-4.56-3.23-7.51c3.98-14.79,10.83-27.98,21.92-38.75c0.86-0.84,1.43-1.6,1.15-2.89c-0.26-1.19,0.05-2.35,0.5-3.51
		c9.74-24.95,7.49-49.19-4.8-72.63c-6.03-11.51-14.41-21.32-23.73-30.34c-1.4-1.35-2.26-1.4-3.72,0
		c-13.32,12.77-24.28,27.24-30.67,44.66c-6.88,18.77-6.3,37.76-0.09,56.65c0.6,1.84,1.13,3.62,0.49,5.52
		c-0.38,1.12,0.22,1.75,0.93,2.44c10.59,10.29,17.5,22.83,22.22,36.67c1.87,5.48,0.75,7.88-4.26,10.77
		c-11.85,6.81-24.49,10.48-38.2,9.53c-21.55-1.49-37.28-11.93-46.77-31.39c-5.79-11.87-8.73-24.55-9.88-37.66
		c-0.46-5.19,2.38-8.25,7.53-8.23c11.85,0.05,23.72-0.45,35.44,1.99c5.59,1.17,10.91,3.03,16,5.58
		C215.41,171.56,215.87,171.74,216.65,172.08z M350.47,176.77c-11.44-0.01-22.66,1.34-33.14,6.25
		c-15.97,7.48-25.66,20.47-31.76,36.58c-0.61,1.6,0.11,2.07,1.32,2.67c7.95,3.88,16.34,5.92,25.17,5.64
		c15.48-0.48,27.55-6.99,35.5-20.6c4.25-7.28,6.92-15.12,8.72-23.3C357.86,176.76,357.85,176.76,350.47,176.77z M178.07,176.91
		c-2.06,0-4.13,0.1-6.18-0.03c-1.65-0.1-2.1,0.44-1.83,2.05c1.46,8.67,3.76,17.07,7.72,24.98c4.87,9.73,11.86,17.2,22.28,21.02
		c12.19,4.47,24.29,3.96,36.17-1.02c6.58-2.76,5.86-1.37,3.09-7.71c-0.34-0.79-0.75-1.54-1.13-2.31
		c-7.07-14.19-17.02-25.5-31.92-31.85C197.24,178.21,187.72,177.23,178.07,176.91z"/>
	<path class="st0" d="M257.26,152.67c0-10.99,0.01-21.99-0.01-32.98c0-1.39,0.09-2.75,0.61-4.04c0.99-2.47,3.23-3.99,5.8-3.96
		c2.6,0.03,4.77,1.56,5.72,4.06c0.53,1.39,0.57,2.84,0.57,4.31c-0.02,21.82-0.02,43.64-0.03,65.45c0,0.52,0.02,1.03-0.02,1.55
		c-0.32,3.98-3,6.64-6.56,6.55c-3.56-0.09-6.09-2.88-6.11-6.92c-0.04-11.34-0.01-22.68-0.01-34.02
		C257.23,152.67,257.24,152.67,257.26,152.67z"/>
	<path class="st0" d="M257.23,272.82c0-9.54,0.01-19.08-0.01-28.61c0-1.87,0.41-3.58,1.63-5.02c3.12-3.67,8.63-2.74,10.48,1.77
		c0.5,1.21,0.62,2.48,0.62,3.78c-0.01,18.73,0,37.47-0.02,56.2c-0.01,4.88-2.38,7.67-6.4,7.68c-3.8,0.01-6.26-2.63-6.28-6.92
		C257.2,292.07,257.23,282.44,257.23,272.82z"/>
</g>
</svg>
