<?xml version="1.0" encoding="utf-8"?>
<!-- Generator: Adobe Illustrator 25.4.1, SVG Export Plug-In . SVG Version: 6.00 Build 0)  -->
<svg version="1.1" id="Capa_1" xmlns="http://www.w3.org/2000/svg" xmlns:xlink="http://www.w3.org/1999/xlink" x="0px" y="0px"
	 viewBox="0 0 526.93 544.34" style="enable-background:new 0 0 526.93 544.34;" xml:space="preserve">
<style type="text/css">
	.st0{fill:#4D2B08;}
	.st1{fill:#492A08;}
</style>
<g>
	<path class="st0" d="M257.38,174.63c0.58-0.97,0.33-1.84,0.33-2.66c0.01-15.99-0.01-31.98-0.02-47.97c0-3.33,1.27-5.48,3.73-6.45
		c4.33-1.7,8.43,1.22,8.45,6.11c0.04,8.78,0.01,17.56,0.01,26.33c0,8.23,0,16.45,0,24.61c0.78,0.47,1.13-0.11,1.53-0.41
		c8.06-5.99,15.68-12.5,23-19.38c3.43-3.22,6.6-3.61,9.08-1.11c2.1,2.12,2.19,6.72-1.07,9.8c-9.72,9.17-20.06,17.52-30.84,25.36
		c-1.19,0.87-1.75,1.72-1.74,3.25c0.06,15.2,0.04,30.41,0.05,45.61c0,2.7,0.05,2.74,2.45,1.32c10.91-6.48,20.7-14.39,29.66-23.35
		c0.78-0.78,1.51-1.59,2.31-2.34c2.45-2.28,6.07-2.38,8.29-0.26c2.33,2.22,2.44,5.98,0.06,8.48c-5.52,5.79-11.31,11.29-17.56,16.31
		c-7.3,5.86-15.17,10.84-23.43,15.2c-1.24,0.65-1.83,1.36-1.83,2.86c0.06,13.95,0.05,27.9,0.02,41.85c0,1.45-0.02,2.4,1.98,1.74
		c21.24-7.04,39.56-18.38,53.44-36.26c13.05-16.81,18.44-36.04,18.08-57.09c-0.33-19.44-6.15-37.43-14.54-54.74
		c-0.75-1.55-1.44-3.14-2.33-4.61c-1.23-2.05-0.94-3.88,0.46-5.65c3.01-3.8,5.14-8.27,8.8-11.57c1.18-1.07,0.38-2.19,0.13-3.26
		c-2.82-12.21,5-23.87,17.38-25.83c14.15-2.25,26.27,9.83,24.14,24.05c-2.44,16.32-21.25,23.73-34.27,13.52
		c-0.72-0.56-1.4-2.13-2.64-0.7c-1.08,1.24-3.04,1.98-1.8,4.41c6.15,12.03,11.14,24.53,14.12,37.74
		c4.71,20.85,5.01,41.63-1.63,62.18c-7.35,22.74-21.61,40.24-41.16,53.59c-11.55,7.89-24.19,13.5-37.63,17.29
		c-1.86,0.53-2.59,1.26-2.57,3.32c0.11,11.05,0.07,22.1,0.02,33.15c-0.02,4.4-3.32,7.15-7.38,6.28c-2.88-0.62-4.67-3.04-4.67-6.46
		c-0.01-10.97-0.04-21.95,0.06-32.92c0.02-1.97-0.52-2.78-2.48-3.35c-20.26-5.87-38.57-15.3-53.7-30.24
		c-18.27-18.05-28.13-40-29.97-65.6c-1.67-23.24,3.5-45.19,12.97-66.17c14.85-32.91,36.31-60.83,64.39-83.58
		c3.04-2.46,6.33-4.61,9.54-6.85c3.49-2.44,6.89-2.33,10.46,0.08c18.33,12.36,33.54,27.95,46.97,45.37
		c4.5,5.84,8.55,11.99,12.51,18.21c1.12,1.76,1.09,3.03-0.41,4.5c-2.03,1.98-4.29,3.66-6.45,5.46c-1.44,1.2-2.11,0.8-3-0.67
		c-5.46-8.98-11.48-17.59-18.22-25.67c-10.27-12.32-21.5-23.64-34.5-33.14c-1.68-1.22-2.81-1.19-4.47,0.03
		c-13.65,10.08-25.48,22.01-36.11,35.17c-5.71,7.08-10.96,14.5-15.82,22.2c-0.92,1.46-0.89,2.31,0.36,3.55
		c8.07,8.01,16.16,16,24.73,23.46c3.07,2.67,2.77,6.8,1.02,8.75c-2.38,2.65-5.65,2.69-8.73,0.04c-7.54-6.51-14.79-13.32-21.75-20.44
		c-0.87-0.89-1.72-1.81-2.76-2.9c-3.22,5.56-5.74,11.11-8.03,16.76c-6.66,16.43-10.76,33.35-10.11,51.24
		c0.93,25.46,10.95,46.66,29.69,63.8c12,10.97,26.09,18.29,41.43,23.39c1.78,0.59,2.4,0.41,2.39-1.67
		c-0.08-14.03-0.06-28.06-0.02-42.09c0-1.27-0.38-1.95-1.53-2.53c-15.43-7.81-28.69-18.44-40.39-31.09c-2.5-2.7-2.62-6.53-0.23-8.87
		c2.42-2.36,6.13-2.13,8.75,0.66c9.17,9.77,19.36,18.28,30.92,25.11c0.65,0.39,1.36,1.2,2.07,0.87c0.78-0.37,0.36-1.4,0.36-2.13
		c0.03-15.2,0.01-30.41,0.08-45.61c0.01-1.5-0.46-2.45-1.62-3.36c-2.97-2.31-5.85-4.73-8.75-7.12c-2.44-2.02-2.85-5.68-0.95-8.22
		c1.81-2.42,5.39-2.95,8.01-1.11C255.51,172.94,256.39,173.8,257.38,174.63z M347.36,121.37c-0.03,5.12,4.12,9.33,9.17,9.31
		c5.03-0.02,9.26-4.32,9.19-9.36c-0.06-4.74-4.3-8.91-9.1-8.95C351.67,112.33,347.39,116.49,347.36,121.37z"/>
	<path class="st0" d="M240.65,412.13c0.03,12.77-2.51,25.05-6.92,36.99c-0.88,2.38-2.65,3.76-4.86,4.81
		c-28.78,13.62-56.31,10.49-82.2-7.05c-26.5-17.94-42.8-42.95-48.43-74.57c-2.23-12.53-1.34-24.96,2.81-37.11
		c1.27-3.73,3.48-6.34,6.93-8.15c12.75-6.71,26.34-8.98,40.54-7.48c25.47,2.71,47.65,12.93,66.32,30.42
		c15.4,14.43,23.81,32.38,25.46,53.46c0.14,1.8,0.27,3.59,0.35,5.39C240.69,409.94,240.65,411.03,240.65,412.13z M176.67,386.71
		c0.33-4.07,2.05-6.21,4.97-6.19c2.95,0.01,4.66,2.14,5.15,6.14c0.45,3.65,1.1,7.28,1.57,10.92c0.18,1.4,0.77,2.44,1.75,3.44
		c11.03,11.24,22.03,22.51,33.04,33.77c1.74,1.78,1.89,1.75,2.48-0.63c1.57-6.26,2.37-12.63,2.58-19.06
		c0.69-21.18-5.79-39.72-20.98-54.72c-14.93-14.74-32.99-23.64-53.63-27.28c-13.28-2.34-26.22-1.46-38.6,4.37
		c-1.46,0.69-2.3,1.59-2.76,3.19c-2.67,9.34-3.59,18.83-1.84,28.38c6.1,33.21,24,57.94,54.08,73.41
		c16.04,8.25,32.89,9.57,50.16,3.75c2.1-0.71,1.94-1.22,0.55-2.62c-10.15-10.24-20.25-20.53-30.33-30.84
		c-0.85-0.87-1.77-1.16-2.92-1.2c-5.32-0.2-10.64-0.46-15.97-0.66c-2.29-0.09-4.14-0.85-5.1-3.07c-1.75-4.04,0.79-7.93,5.21-8.02
		c1.81-0.04,3.65,0.29,5.73-0.22c-1.49-1.6-2.73-2.99-4.04-4.32c-9.35-9.49-18.72-18.96-28.08-28.44c-2.76-2.8-2.95-6.55-0.45-8.99
		c2.42-2.36,6.1-2.14,8.81,0.56c2.99,2.99,5.92,6.05,8.93,9.02C163.5,373.81,170.04,380.21,176.67,386.71z"/>
	<path class="st0" d="M429.89,360.02c-0.22,16.56-4.7,32.01-12.45,46.54c-9.82,18.4-23.63,33.09-41.66,43.64
		c-24.25,14.19-49.24,16.22-75.11,4.46c-3.82-1.74-6.09-4.09-7.38-8.09c-4.97-15.35-7.24-30.94-5.01-47.02
		c2.89-20.88,12.24-38.35,28.05-52.26c19.17-16.86,41.46-26.55,67.03-28c13.08-0.74,25.57,1.85,37.04,8.54
		c2.56,1.49,4.24,3.56,5.26,6.35C428.72,342.53,429.92,351.16,429.89,360.02z M354.53,399.66c2.69,0,4.84,0.01,7,0
		c4.37-0.03,6.67,1.82,6.71,5.4c0.04,3.46-2.2,5.35-6.44,5.48c-5.48,0.17-10.96,0.41-16.44,0.54c-1.44,0.03-2.48,0.5-3.49,1.53
		c-9.98,10.19-20.01,20.33-30.01,30.49c-1.84,1.87-1.84,1.92,0.69,2.82c18.69,6.59,36.64,4.3,53.74-5.05
		c25.28-13.83,41.3-35.08,48.77-62.76c3.32-12.3,3.69-24.75-0.07-37.13c-0.52-1.73-1.41-2.79-3.02-3.57
		c-6.8-3.33-14.01-5.02-21.52-5.38c-17.02-0.8-32.69,3.95-47.49,11.95c-12.45,6.72-23.22,15.48-31.11,27.36
		c-10.33,15.56-13.51,32.82-11.55,51.19c0.45,4.24,1.06,8.47,2.32,12.6c1.03-0.27,1.42-1.01,1.95-1.55
		c11.47-11.69,22.89-23.42,34.41-35.07c1.42-1.43,2.17-2.94,2.42-4.89c0.41-3.18,0.89-6.36,1.45-9.52c0.45-2.6,2.15-4.17,4.52-4.41
		c2.28-0.23,4.09,0.91,5.19,3.24c0.15,0.31,0.03,0.79,0.78,0.98c0.99-1.03,2.06-2.16,3.15-3.27c7.47-7.6,14.93-15.21,22.44-22.77
		c2.44-2.46,6.15-2.45,8.45-0.18c2.32,2.3,2.28,6.24-0.12,8.67c-7.87,7.97-15.75,15.94-23.62,23.92
		C360.69,393.28,357.79,396.3,354.53,399.66z"/>
	<path class="st0" d="M117.65,269.21c-0.03-10.46,7.45-19.34,17.3-20.57c11.11-1.39,20.57,4.82,23.22,15.24
		c2.6,10.2-2.69,20.62-12.57,24.39c-1.82,0.69-2.31,1.53-2.14,3.38c0.44,4.83,0.69,9.68,1.01,14.52c0.04,0.55,0.09,1.1,0.08,1.64
		c-0.07,2.52-1.73,4.28-4.03,4.29c-2.36,0.01-3.97-1.62-4.14-4.19c-0.35-5.47-0.74-10.93-1.02-16.4c-0.07-1.49-0.56-2.1-2.09-2.47
		C124.02,286.79,117.67,278.66,117.65,269.21z M138.13,277.53c4.81,0.03,8.76-3.82,8.77-8.55c0.01-4.59-3.91-8.43-8.63-8.46
		c-4.74-0.03-8.72,3.76-8.75,8.32C129.48,273.65,133.31,277.51,138.13,277.53z"/>
	<path class="st0" d="M391.12,291.2c-4.61,0.03-8.85-1.23-12.47-4.09c-1.27-1.01-2.07-0.91-3.18,0.08
		c-1.62,1.47-3.34,2.85-5.04,4.22c-2.21,1.78-5.21,1.61-6.73-0.32c-1.5-1.9-1.06-4.61,1.13-6.45c1.86-1.56,3.71-3.15,5.7-4.53
		c1.34-0.93,1.44-1.85,1.04-3.34c-2.23-8.3-0.24-15.55,6.01-21.42c6.57-6.16,16.8-6.96,24.42-2.18c7.87,4.94,11.48,14.18,9,23.04
		C408.48,285.2,400.62,291.13,391.12,291.2z M382.72,270.68c-0.05,4.71,3.55,8.47,8.19,8.56c4.79,0.1,8.82-3.73,8.91-8.47
		c0.08-4.58-3.83-8.5-8.52-8.55C386.57,262.17,382.77,265.92,382.72,270.68z"/>
	<path class="st0" d="M269.88,438.7c0,13.31-0.01,26.63,0.01,39.94c0,2.02-0.3,3.89-1.77,5.42c-2.89,3-7.91,2.18-9.65-1.6
		c-0.43-0.93-0.66-1.91-0.66-2.95c0.01-27.1-0.01-54.2,0.04-81.29c0.01-4.98,4.49-7.84,8.74-5.72c2.57,1.28,3.29,3.57,3.28,6.26
		c-0.02,13.31-0.01,26.63-0.01,39.94C269.86,438.7,269.87,438.7,269.88,438.7z"/>
</g>
</svg>
