<?xml version="1.0" encoding="utf-8"?>
<!-- Generator: Adobe Illustrator 25.4.1, SVG Export Plug-In . SVG Version: 6.00 Build 0)  -->
<svg version="1.1" id="Capa_1" xmlns="http://www.w3.org/2000/svg" xmlns:xlink="http://www.w3.org/1999/xlink" x="0px" y="0px"
	 viewBox="0 0 526.93 544.34" style="enable-background:new 0 0 526.93 544.34;" xml:space="preserve">
<style type="text/css">
	.st0{fill:#4D2B08;}
	.st1{fill:#492A08;}
</style>
<g>
	<path class="st1" d="M94.13,262.08c-1.48-2.45-2.89-4.95-4.45-7.34c-3.62-5.55-7.75-10.73-11.91-15.88
		c-3.96-4.9-6.47-10.43-5.06-16.8c1.93-8.71,7.67-14.58,15.54-18.33c3.52-1.67,6.79-0.25,9.6,2.15c1.73,1.47,3.16,3.24,4.5,5.06
		c9.37,12.69,17.96,25.85,24.47,40.27c1.97,4.37,3.29,8.93,4.19,13.62c0.3,1.59,0.14,3.08-1.21,4.19c-1.85,1.52-4.51,0.89-5.34-1.43
		c-3.4-9.52-8.8-17.95-14.33-26.29c-5.22-7.87-10.5-15.7-15.95-23.4c-2.66-3.76-2.45-4.43-6.73-0.61c-5.6,5-5.93,8.9-1.41,14.95
		c4.2,5.63,8.42,11.23,12.08,17.24c10.06,16.55,15.47,34.72,18.59,53.66c2.31,14.04,3.28,28.21,4.28,42.39
		c0.5,7.09,1.42,14.14,3.44,20.99c2.01,6.81,5.14,13.03,9.71,18.51c1.05,1.26,1.61,1.29,2.26-0.27c0.98-2.34,1.49-4.75,1.54-7.29
		c0.07-3.41,1.73-5.4,4.5-5.52c2.87-0.12,5.02,1.82,5.25,5.17c0.46,6.79-1.43,12.96-5.67,18.28c-2.3,2.89-5.37,4.06-9.06,2.85
		c-0.73-0.24-1.36-0.31-2.02,0.26c-3.24,2.8-6.48,5.58-8.98,9.11c-0.95,1.34-0.83,2.12,0.55,3.09
		c26.41,18.57,54.72,32.96,86.58,39.61c50,10.45,99.63,8.85,148.83-4.8c19.75-5.48,38.3-13.68,54.7-26.23
		c14.98-11.47,25.86-25.87,30.72-44.33c2.69-10.2,2.3-20.16-3.71-29.34c-1.03-1.58-2.23-2.91-3.98-3.77
		c-2.09-1.04-3.15-2.72-3.34-5.19c-0.43-5.42-2.03-10.62-3.88-15.7c-2.26-6.22-4.76-12.35-7.08-18.55
		c-0.54-1.46-1.13-1.99-2.55-1.01c-0.52,0.36-1.17,0.55-1.79,0.71c-2.21,0.56-4.38-0.33-5.19-2.07c-0.89-1.92-0.19-4.17,1.73-5.52
		c0.2-0.14,0.42-0.24,0.61-0.39c0.95-0.73,2.8-0.51,3-1.63c0.2-1.11-0.64-2.43-1.09-3.63c-2.23-5.95-4.48-11.88-6.84-18.13
		c-1.49,2.18-2.75,4.12-4.11,5.99c-1.94,2.69-4.62,3.35-6.88,1.78c-2.14-1.48-2.49-4.22-0.67-6.89c2.13-3.14,4.35-6.21,6.15-9.56
		c0.42-0.78,0.83-1.5,0.79-2.48c-0.64-14.19-0.47-28.41-1.87-42.57c-1.14-11.59-2.85-23.07-6.85-34.09
		c-1.91-5.26-4.47-10.19-7.34-14.97c-0.83-1.38-1.76-2.73-2.36-4.21c-1.16-2.87,0.22-5.93,3.17-6.42c2.06-0.35,2.34-1.44,2.53-3.03
		c1.54-13.5,2.03-27.04,1.3-40.61c-0.32-5.97-0.75-11.92-2.14-17.76c-0.45-1.89-0.94-3.76-1.92-5.46c-1.89-3.24-4.31-4.13-7.76-2.71
		c-3.23,1.33-6.09,3.31-8.76,5.55c-10.59,8.9-19.36,19.4-26.97,30.9c-0.57,0.87-0.88,1.54-0.19,2.59c1.34,2.05,1.66,4.29-0.09,6.27
		c-1.78,2.02-3.97,1.59-6.24,0.78c-34.9-12.5-70.16-12.69-105.7-3.06c-3.58,0.97-7.04,2.34-10.42,3.9c-0.87,0.4-1.79,0.75-2.72,0.99
		c-1.96,0.49-3.74,0.11-4.97-1.59c-1.23-1.7-1.18-3.64-0.01-5.22c1.03-1.4,0.77-2.36-0.04-3.62c-7.13-11.21-15.13-21.72-24.67-31
		c-2.32-2.26-4.82-4.31-7.64-5.91c-4.19-2.38-6.75-1.49-8.53,3.03c-1.7,4.33-2.25,8.92-2.66,13.49
		c-1.66,18.53-1.96,37.07,0.24,55.59c0.11,0.96,0.15,2,0.56,2.84c1.8,3.72,0.78,6.96-1.24,10.25c-5.47,8.88-6.49,18.96-7.5,29.01
		c-1.4,13.98-1.66,28.03-2.37,42.05c-0.29,5.7-1.92,11.12-3.15,16.62c-0.37,1.64-0.24,2.62,1.46,3.46c2.54,1.26,3.46,3.38,2.76,5.53
		c-0.81,2.5-2.7,3.33-5.12,2.98c-1.11-0.16-1.38,0.28-1.6,1.19c-3.83,15.6-7.25,31.28-9.01,47.28c-0.7,6.33-1.41,12.67-2.77,18.91
		c-0.49,2.22-1.22,4.35-2.18,6.4c-3.15,6.71-3.75,13.8-3.08,21.06c0.27,2.89-0.6,4.84-2.61,5.26c-1.83,0.38-3.61-1.04-4.24-3.78
		c-2.05-8.88-2.09-17.89,0.17-26.64c2.16-8.33,3.31-16.75,4.37-25.24c1.32-10.65,3.27-21.22,5.8-31.65
		c1.63-6.69,1.38-13.24,0.56-19.92c-1.73-14.08-6-27.34-12.21-40.08c-6.78-13.89-3.23-24.54,10.36-32.2
		c3.75-2.12,7.72-3.69,11.99-4.37c1.47-0.24,2.02-0.89,2.24-2.3c1-6.35,2.99-12.38,6.24-17.95c0.58-1,0.54-1.99,0.41-3.03
		c-2.39-18.8-2.89-37.65-1.3-56.53c0.6-7.16,1.43-14.3,3.76-21.16c4.2-12.32,14.26-15.9,25.26-8.89c8,5.11,14.13,12.23,20.17,19.39
		c5.64,6.67,10.56,13.87,15.24,21.23c0.79,1.24,1.45,1.45,2.9,1.02c34.91-10.4,69.94-10.89,105.05-1.04
		c1.62,0.45,2.35,0.17,3.26-1.24c8.77-13.47,18.87-25.79,31.6-35.76c4.16-3.25,8.62-6,14-6.79c6.94-1.02,12.82,1.82,16.28,7.93
		c3.85,6.79,4.87,14.34,5.46,21.91c1.28,16.45,1.17,32.9-0.85,49.31c-0.3,2.4-0.54,4.84-1.2,7.15c-0.84,2.91-0.02,5.28,0.99,8.02
		c1.83,4.98,4.74,7.56,10.04,8.75c6.28,1.41,12.05,4.56,17.23,8.54c10.41,8,13.19,17.7,8.55,29.97c-1.43,3.78-3.29,7.37-5.43,10.8
		c-1.98,3.16-4.6,3.43-7.05,0.71c-1.17-1.29-2.08-2.76-2.97-4.3c-1.71-2.94-4.94-4.3-7.99-5.59c-1.1-0.47-0.76,0.65-0.8,1.2
		c-0.03,0.4,0.04,0.8,0.06,1.21c0.26,5.3,0.52,10.6,0.8,16.34c1.54-1.61,2.05-3.38,3-4.88c0.99-1.57,1.96-3.15,2.96-4.71
		c0.66-1.04,1.45-1.42,2.61-0.61c2.76,1.93,3.9,4.79,2.8,8.08c-1.93,5.76-4.72,11.17-7.75,16.39c-1.99,3.42-2.07,6.32-0.68,9.95
		c6.91,18.01,13.57,36.11,20.33,54.17c1.62,4.33,2.57,8.83,3.27,13.38c0.19,1.24,0.59,2.22,1.56,3.12
		c9.91,9.17,13.72,20.8,12.59,33.92c-1.9,22.04-12.7,39.67-28.51,54.48c-14.67,13.74-32.09,22.95-50.82,29.83
		c-26.43,9.71-53.86,14.62-81.87,16.33c-28.49,1.74-56.78,0.07-84.79-5.69c-38.7-7.96-72.97-25.22-103.27-50.21
		c-19.73-16.27-31.08-37.65-34.28-63.12c-1.87-14.93,0.67-29.42,4.98-43.69c3.94-13.04,8.89-25.8,11.09-39.33
		c0.26-1.59,0.55-3.18,0.91-4.75c0.15-0.66,0.12-1.55,1.08-1.69c0.8-0.12,1.41,0.28,1.89,0.87c0.6,0.75,1.17,1.53,1.75,2.29
		C93.78,262.29,93.95,262.18,94.13,262.08z M97.34,268.95c-0.31,2.34-0.45,4.09-0.79,5.81c-1.79,9.13-4.63,17.96-7.62,26.74
		c-3.49,10.26-6.38,20.68-7.02,31.56c-1.07,18.21,4.19,34.74,13.66,50.08c4.35,7.05,9.56,13.39,15.79,18.87
		c0.83,0.73,1.46,1.37,2.44,0c2.7-3.79,6.24-6.74,10.06-9.34c1.08-0.73,1.12-1.21,0.35-2.24c-2.46-3.31-4.51-6.86-6.23-10.63
		c-5.11-11.22-6.85-23.16-7.67-35.29c-1.04-15.54-1.84-31.1-4.8-46.45C103.64,288.32,101.21,278.74,97.34,268.95z M409.15,188.92
		c1.75,6.97,3.01,13.58,3.6,20.31c0.07,0.8,0.65,1.06,1.26,1.28c4.27,1.53,8.25,3.61,11.83,6.41c0.79,0.62,1.19,0.5,1.64-0.36
		c3.25-6.35,4.32-12.44-1.73-18.6C421.3,193.42,415.79,190.71,409.15,188.92z M153.1,201.97c0.3-3.42,0.3-3.41-2.98-2.16
		c-3.04,1.15-5.89,2.65-8.46,4.64c-5.93,4.6-6.82,8.75-3.53,15.37c0.63,1.27,1.02,1.73,2.35,0.59c3.06-2.64,6.44-4.87,10.2-6.43
		c1.14-0.47,1.55-1.17,1.62-2.36C152.51,208.39,152.83,205.18,153.1,201.97z M149.63,249.11c1.5-8.44,1.33-16.92,1.89-25.34
		c0.06-0.94-0.34-1.13-1.17-0.68c-1.78,0.95-3.49,2.02-5.06,3.3c-2.97,2.44-2.97,2.43-1.55,5.89c0.37,0.89,0.69,1.81,1.07,2.7
		C146.76,239.56,148.25,244.29,149.63,249.11z"/>
	<path class="st1" d="M329.27,310.79c3.08,0.91,5.76,1.71,8.44,2.5c24.45,7.21,29.22,32.5,22.22,49.06
		c-5.01,11.86-13.84,20.26-24.08,27.45c-3.81,2.68-7.82,5.07-12.35,8c4.07-0.67,7.3-1.79,10.51-2.95
		c21.83-7.88,37.44-30.91,36.02-53.83c-0.76-12.21-6.25-22.55-14.51-31.47c-0.66-0.71-1.37-1.4-1.87-2.21
		c-0.87-1.38-1.12-2.92-0.06-4.31c1.13-1.47,2.71-2.08,4.51-1.47c1.21,0.41,2.38,1.02,3.46,1.71c14.62,9.4,22.6,22.97,24.43,40.09
		c2.63,24.65-8.93,41.7-29.41,53.84c-15.43,9.14-32.21,14.33-49.78,17.21c-32.91,5.41-63.68-1.45-92.89-16.57
		c-7.43-3.84-13.95-9.01-18.84-16.01c-7.03-10.06-9.31-21.36-8.51-33.35c1.08-16.11,7.34-29.63,20.69-39.33
		c4.14-3.01,8.74-5.16,13.63-6.7c0.74-0.23,1.62-0.21,2.31-1.17c-11.52-2.84-22.87-4.87-34.33-0.39c-5.4,2.11-9.72,5.68-13.34,10.14
		c-2.08,2.57-4.2,3.3-6.15,1.97c-2.03-1.38-2.4-4.01-0.62-6.71c5.69-8.65,13.72-13.95,23.8-16.14c11.2-2.44,22.2-0.96,33,2.16
		c10.38,2.99,20.54,6.75,30.94,9.61c27.42,7.55,54.6,6.09,81.44-3.05c1.9-0.65,3.66-1.67,5.48-2.52c2.4-1.12,4.65-0.63,5.75,1.26
		c1.19,2.05,0.53,4.27-1.86,5.73c-5.21,3.17-10.95,5.1-16.71,6.97C330.3,310.43,330,310.54,329.27,310.79z M239.65,392.49
		c-1.23-1.58-2.78-3.01-3.64-4.77c-2.46-5.01-6.18-9.02-9.76-13.17c-5.58-6.46-8.7-14.07-10.32-22.36
		c-0.61-3.14-2.14-4.14-5.29-3.29c-5.52,1.49-8.92,6.45-8.36,12.55c0.6,6.48,3.77,11.79,8.23,16.31
		C218.49,385.86,229.25,388.71,239.65,392.49z M294.47,354.6c5.4-0.02,9.42-1.3,12.24-5.2c1.12-1.55,1.45-3.16-0.24-4.49
		c-1.66-1.31-3.13-0.69-4.48,0.69c-3.4,3.49-7.3,4.15-11.64,2.03c-3.07-1.5-5.3-3.91-7.16-6.7c-1.04-1.56-2.32-2.56-4.24-1.49
		c-1.66,0.92-2.08,2.96-0.84,4.88C282.13,350.54,287.88,353.99,294.47,354.6z"/>
	<path class="st1" d="M350.54,220.49c-7.73-0.02-14.83-2.06-21.07-6.72c-6.8-5.07-7.96-9.51-4.51-17.23
		c9.71-21.65,35.3-23.71,49.01-7.38c8.58,10.22,6.42,20.44-5.32,26.77C362.99,218.99,356.83,220.54,350.54,220.49z M351.03,212.37
		c6.92-0.4,13.61-2.28,18.94-7.63c0.94-0.94,1.58-1.82,1-3.38c-3.08-8.4-14.53-14.98-23.31-13.25c-7.88,1.55-12.84,6.6-16.21,13.58
		c-0.75,1.55-0.54,2.61,0.78,3.74C337.55,209.99,343.77,212.03,351.03,212.37z"/>
	<path class="st1" d="M241.71,200.9c-1.61-8.36-6.94-13.85-14.07-17.75c-13.38-7.32-30.49-1.37-36.65,12.61
		c-2.79,6.33-2.01,11.19,2.89,16.12c5.72,5.75,12.77,8.55,20.29,8.8c9.07,0.04,19.05-4.27,24.64-10.26
		C241.35,207.69,242.42,204.6,241.71,200.9z M229.14,207.48c-1.43,0.9-2.95,1.64-4.41,2.49c-11.35,6.61-21.17,0.07-26.99-6.16
		c-0.6-0.65-0.83-1.3-0.47-2.18c2.95-7.38,13.19-14.54,21.39-12.35c0.2,0.05,0.38,0.11,0.55,0.17c0.94,0.04,1.88,0.33,2.71,0.77
		c0.37,0.2,0.72,0.47,1.04,0.79c0.75,0.24,1.39,0.63,1.9,1.13c1.67,0.94,3.23,2.15,4.27,3.63c0.3,0.19,0.57,0.42,0.82,0.69
		c0.29,0.27,0.53,0.57,0.73,0.89C235.4,202.39,235.05,203.76,229.14,207.48z"/>
	<path class="st1" d="M281.48,183.4c-1.06-0.06-2.15-0.22-2.96-0.93c-2.23-1.95-4.95-3-7.53-4.3c-1.73-0.87-3-2.14-3.69-3.98
		c-0.83-2.22-0.32-4.11,1.38-5.1c1.82-1.06,4.13-0.66,5.17,1.53c1.45,3.07,4.15,4.34,6.77,5.87c0.94,0.55,1.69,0.59,2.65-0.03
		c2.34-1.52,4.83-2.67,6-5.63c0.82-2.08,3.35-2.66,5.16-1.79c1.72,0.83,2.46,2.82,1.78,5c-0.69,2.22-2.16,3.83-4.32,4.59
		c-2.54,0.89-4.9,2.02-6.99,3.73C283.92,183.15,282.72,183.4,281.48,183.4z"/>
	<path class="st1" d="M282.3,271.65c-3.88-0.48-7.21-2.18-9.83-5.1c-1.37-1.53-1.2-4,0.07-5.33c1.33-1.4,3.52-1.56,5.32-0.39
		c0.14,0.09,0.26,0.19,0.39,0.29c4.22,3.17,4.22,3.17,8.36,0.13c2.13-1.56,4.46-1.51,5.87,0.14c1.45,1.7,1.27,4.06-0.65,5.84
		C289.17,269.7,285.99,271.17,282.3,271.65z"/>
	<path class="st1" d="M428.14,333.77c0.05,2.15-2.81,6.12-4.86,6.77c-2.4,0.75-4.63-0.66-4.99-3.15c-0.5-3.43,3.43-7.49,6.91-7.14
		C426.97,330.43,428.1,331.78,428.14,333.77z"/>
	<path class="st1" d="M420.71,316.67c0.06,2.87-2.11,5.07-4.99,5.1c-2.6,0.02-4.39-1.77-4.42-4.4c-0.03-2.75,2.33-5.22,4.98-5.21
		C418.74,312.18,420.66,314.13,420.71,316.67z"/>
	<path class="st1" d="M281.84,165.09c2.3-0.01,3.93,1.58,3.99,3.89c0.06,2.49-1.73,4.36-4.14,4.3c-2.25-0.05-3.83-1.7-3.86-4.04
		C277.81,166.82,279.48,165.09,281.84,165.09z"/>
	<path class="st1" d="M353.24,203.91c-2.7,0.04-4.56-0.46-6.19-1.59c-1.84-1.27-2.99-3.01-2.57-5.34c0.41-2.29,1.94-3.63,4.15-4.23
		c2.34-0.64,4.64-0.44,6.91,0.3c2.85,0.93,4.37,2.9,4.29,5.45c-0.07,2.51-1.79,4.43-4.66,5.13
		C354.31,203.83,353.42,203.89,353.24,203.91z"/>
	<path class="st1" d="M216.45,203.57c-2.7,0.04-4.56-0.46-6.19-1.59c-1.84-1.27-2.99-3.01-2.57-5.34c0.41-2.29,1.94-3.63,4.15-4.23
		c2.34-0.64,4.64-0.44,6.91,0.3c2.85,0.93,4.37,2.9,4.29,5.45c-0.07,2.51-1.79,4.43-4.66,5.13
		C217.52,203.5,216.63,203.55,216.45,203.57z"/>
</g>
</svg>
