<?xml version="1.0" encoding="utf-8"?>
<!-- Generator: Adobe Illustrator 25.4.1, SVG Export Plug-In . SVG Version: 6.00 Build 0)  -->
<svg version="1.1" id="Capa_1" xmlns="http://www.w3.org/2000/svg" xmlns:xlink="http://www.w3.org/1999/xlink" x="0px" y="0px"
	 viewBox="0 0 526.93 544.34" style="enable-background:new 0 0 526.93 544.34;" xml:space="preserve">
<style type="text/css">
	.st0{fill:#4D2B08;}
	.st1{fill:#492A08;}
</style>
<g>
	<path class="st0" d="M235.6,258.02c43.86,0,87.73,0,131.59,0c8.33,0,13.24,4.1,14.74,12.35c0.29,1.59,0.57,3.21,0.63,4.82
		c0.06,1.66,0.68,1.83,2.14,1.42c5.91-1.67,11.9-2.49,18.08-1.9c18.25,1.73,33.6,16.07,36.47,34.19c4,25.24-11.44,48.08-36.97,54.77
		c-11.87,3.11-23.66,3.15-35.36-0.77c-1.33-0.45-1.84-0.12-2.45,1.08c-15.48,30.03-38.25,52.23-69.9,64.78
		c-14.16,5.62-28.95,8.14-44.15,8.26c-13.13,0.1-26.25,0.06-39.38-0.39c-18.87-0.65-35.77-7.16-51.35-17.38
		c-33.96-22.28-55.52-53.41-65.62-92.62c-4.54-17.63-6.51-35.52-4.99-53.72c0.25-2.95,0.66-5.86,2.22-8.44
		c2.67-4.42,6.65-6.45,11.79-6.45c25.33,0.02,50.66,0.01,75.99,0C197.92,258.02,216.76,258.02,235.6,258.02z M234.88,270.35
		c-43.32,0-86.63,0.01-129.95-0.04c-2.35,0-3.24,0.81-3.47,3.15c-0.98,9.66-0.63,19.29,0.59,28.88
		c5.44,42.69,24.36,77.66,59.49,103.21c14.64,10.65,30.79,17.67,49.1,18.7c12.72,0.71,25.47,0.8,38.21,0.54
		c43.54-0.86,76.38-20.6,99.49-57.03c10.17-16.03,16.1-33.8,19.68-52.36c2.54-13.17,3.77-26.44,2.24-39.85
		c-0.45-3.9-2.04-5.23-5.88-5.23C321.2,270.34,278.04,270.34,234.88,270.35z M386.17,353.54c1.03-0.09,2.97-0.16,4.87-0.45
		c15.08-2.28,26.78-9.53,33.54-23.55c6.16-12.79,2.68-28.03-8.06-36.65c-9.84-7.91-21.89-7.17-32.42-2.9
		c-0.93,0.37-0.98,1.04-1.03,1.84c-0.16,2.85-0.29,5.7-0.55,8.54c-1.51,16.77-5.4,33.01-11.32,48.75c-0.59,1.58-0.29,2.14,1.27,2.57
		C376.68,352.83,380.94,353.37,386.17,353.54z"/>
	<path class="st0" d="M242.4,467.12c-39.53,0-79.07-0.02-118.6,0.01c-12.04,0.01-23.16-3.18-33.45-9.38
		c-2.86-1.72-3.96-4.75-2.9-7.77c0.94-2.69,3.67-4.25,6.65-3.84c1.11,0.15,2.03,0.69,2.96,1.25c8.18,4.96,17.1,7.51,26.63,7.52
		c79.3,0.04,158.59,0.04,237.89-0.02c9.79-0.01,18.9-2.67,27.16-8.02c3.42-2.22,7.27-1.58,9.12,1.51c1.84,3.07,0.7,6.96-2.59,8.95
		c-10.82,6.53-22.48,9.86-35.2,9.82c-39.22-0.11-78.45-0.04-117.67-0.04C242.4,467.11,242.4,467.11,242.4,467.12z"/>
	<path class="st0" d="M244.34,235.48c-2.04-0.04-3.9-1-4.97-3.13c-1.23-2.45-0.85-4.85,0.8-6.95c1.62-2.07,3.18-4.18,4.49-6.46
		c4.84-8.47,3.89-16.97-2.83-24.01c-7.91-8.28-11.45-17.81-8.7-29.21c1.38-5.71,4.49-10.45,8.62-14.55c1.71-1.7,3.25-3.53,4.28-5.72
		c3.53-7.5,2.36-14.41-2.82-20.71c-1.76-2.14-3.83-4.03-5.36-6.37c-7.3-11.22-6.7-22.54-0.36-33.9c0.9-1.61,1.96-3.15,3.07-4.62
		c2.13-2.83,5.66-3.45,8.39-1.57c2.7,1.86,3.35,5.44,1.5,8.43c-0.86,1.37-1.89,2.63-2.71,4.03c-5.06,8.69-4.09,17.07,2.85,24.35
		c8.12,8.52,11.24,18.47,8.41,29.99c-1.4,5.69-4.73,10.32-8.82,14.45c-4.83,4.88-6.97,10.65-5.51,17.52
		c0.82,3.84,3.05,6.83,5.74,9.59c8.33,8.55,11.12,18.67,8.11,30.23c-1.67,6.4-5.48,11.69-9.51,16.8
		C247.94,235.03,246.34,235.45,244.34,235.48z"/>
	<path class="st0" d="M306.98,134.4c0.14,8.65-3.14,15.92-9,22.13c-2.02,2.14-4.11,4.21-5.28,6.98c-3.22,7.64-1.9,14.51,3.71,20.53
		c4.11,4.41,7.58,9.17,8.99,15.15c2.39,10.12,0.01,19.27-5.74,27.7c-1.52,2.23-4.46,2.95-7.05,1.96c-2.48-0.95-3.88-3.32-3.63-6.09
		c0.16-1.77,1.09-3.18,1.97-4.64c5.36-8.95,4.47-17.66-2.71-25.2c-7.35-7.73-10.56-16.72-8.71-27.33c1.16-6.64,4.64-12,9.27-16.75
		c5.22-5.35,7.53-11.66,5.37-19.05c-0.8-2.72-2.24-5.24-3.4-7.85c-0.82-1.83-1.75-3.62-2.49-5.48c-1.41-3.54-0.13-7.11,2.94-8.47
		c3.34-1.49,6.56-0.13,8.35,3.54c1.52,3.12,3.3,6.11,4.57,9.36C305.87,125.23,306.97,129.69,306.98,134.4z"/>
	<path class="st0" d="M195.81,104.5c4.64,0.04,7.36,4.95,5.04,9.24c-0.99,1.83-2.24,3.51-3.33,5.29c-2.4,3.91-4.27,8-4.85,12.65
		c-0.79,6.36,0.84,11.92,5.07,16.73c1.93,2.2,4.04,4.25,5.69,6.7c7.59,11.26,7.68,22.94,1.92,34.92c-1.75,3.63-4.17,6.85-6.72,9.96
		c-0.93,1.13-2.06,2.19-2.66,3.48c-1.74,3.73-6.51,3.93-8.94,2.22c-2.81-1.97-3.32-5.95-1.05-9.07c1.77-2.43,3.65-4.79,5.48-7.18
		c3.21-4.19,5.45-8.79,5.89-14.12c0.54-6.53-2.03-11.9-6.44-16.5c-5.37-5.6-9.15-12-10.23-19.82c-0.88-6.35,0.1-12.45,2.44-18.38
		c1.94-4.92,4.74-9.35,7.68-13.71C191.98,105.15,193.81,104.64,195.81,104.5z"/>
	<path class="st0" d="M255.34,298.33c-26.32,0-52.64,0-78.97-0.01c-1.07,0-2.17-0.04-3.21-0.27c-2.78-0.62-4.51-2.85-4.55-5.66
		c-0.04-2.91,1.69-5.33,4.44-6.03c0.88-0.23,1.83-0.32,2.74-0.32c53.11-0.02,106.21-0.02,159.32-0.01c4.4,0,6.98,2.42,6.91,6.34
		c-0.06,3.7-2.7,5.95-7.03,5.95C308.45,298.33,281.89,298.33,255.34,298.33z"/>
	<path class="st0" d="M333,317.84c-0.55,3.17-1.67,6.53-2.97,9.83c-4.4,11.18-11.4,20.25-21.81,26.49c-1.12,0.67-2.29,1.3-3.49,1.81
		c-3.48,1.47-6.75,0.47-8.18-2.43c-1.58-3.19-0.31-6.85,3.08-8.59c5.82-2.99,10.59-7.16,14.32-12.53
		c3.39-4.88,5.57-10.28,7.01-16.03c0.98-3.93,4.33-5.87,7.88-4.74C331.26,312.43,333,314.86,333,317.84z"/>
</g>
</svg>
