<svg width="33" height="34" viewBox="0 0 33 34" fill="none" xmlns="http://www.w3.org/2000/svg">
<path d="M16.5 31.0875C24.1931 31.0875 30.5874 24.7067 30.5874 17C30.5874 9.30688 24.1789 2.91254 16.4858 2.91254C8.77973 2.91254 2.41309 9.30688 2.41309 17C2.41309 24.7067 8.79328 31.0875 16.5 31.0875ZM9.74616 15.4667C9.74616 12.5527 12.1357 10.1631 15.0633 10.1631C17.9779 10.1631 20.3669 12.5527 20.3669 15.4667C20.3723 16.5625 20.0288 17.6315 19.3863 18.5192L22.8395 21.9724C23.0328 22.1657 23.1571 22.4279 23.1571 22.6901C23.1571 23.2706 22.7564 23.6707 22.2178 23.6707C21.9002 23.6707 21.6379 23.5741 21.3751 23.3113L17.9637 19.9005C17.105 20.4743 16.096 20.7818 15.0633 20.7844C12.1357 20.7844 9.74616 18.3948 9.74616 15.4667ZM11.2789 15.4667C11.2789 17.5386 12.9919 19.2511 15.0633 19.2511C17.1081 19.2511 18.82 17.5386 18.82 15.4667C18.82 13.423 17.1075 11.71 15.0633 11.71C12.9919 11.71 11.2789 13.423 11.2789 15.4667Z" fill="black"/>
</svg>
